# xmcd
#
# Track frame offsets:
#	150
#	18231
#	35943
#	53087
#	68983
#	89264
#	103977
#	116519
#	133622
#	149616
#	165138
#	180251
#	196962
#	216328
#	233370
#	249317
#	267376
#	283182
#	300926
#	316599
#
# Disc length: 4459 seconds
#
# Revision: 1
# Processed by: cddbd v1.4PL0 Copyright (c) Steve Scherf et al.
# Submitted via: audiograbber 1.80
#
DISCID=13116914
DTITLE=var - BG pop vol.3
DYEAR=1900
DGENRE=
TTITLE0=Maria Ilieva - Nishto
TTITLE1=Toni - Vsichko bilo e sun
TTITLE2=Ioana - Hypersonic
TTITLE3=Rumuneca i Enchev - Moiata zhena
TTITLE4=TE - Ima li cwetia
TTITLE5=Magdalena - Niama da placha
TTITLE6=Doni i Neti - Tazi wecher az sum hubawa
TTITLE7=TE - All Right
TTITLE8=Neti - Lunata spi (remix)
TTITLE9=Rushi Widinliew - Wsichko se wrushta
TTITLE10=DJ T - Fresh
TTITLE11=Fresh - Zabrawi me
TTITLE12=Grafa - Otrovni streli
TTITLE13=Ann G ft. nishto - G-n Igrach
TTITLE14=Beloslava - Padam i ne potuwam
TTITLE15=Mary boys band - Esen
TTITLE16=Nina Nikolina - Prah
TTITLE17=Te - Tia
TTITLE18=Ann G - Otrova w men
TTITLE19=Lora - Paia
EXTD=
EXTT0=
EXTT1=
EXTT2=
EXTT3=
EXTT4=
EXTT5=
EXTT6=
EXTT7=
EXTT8=
EXTT9=
EXTT10=
EXTT11=
EXTT12=
EXTT13=
EXTT14=
EXTT15=
EXTT16=
EXTT17=
EXTT18=
EXTT19=
PLAYORDER=
